<svg xmlns="http://www.w3.org/2000/svg" viewBox="0 0 47.33 47.33"><defs><style>.cls-1{fill:#4cb74b;}</style></defs><g id="Layer_2" data-name="Layer 2"><g id="Layer_1-2" data-name="Layer 1"><path class="cls-1" d="M34.64,47.33H1.24A1.27,1.27,0,0,1,.36,47,1.27,1.27,0,0,1,0,46.09V12.69A12.7,12.7,0,0,1,12.69,0h33.4A1.25,1.25,0,0,1,47,.36a1.27,1.27,0,0,1,.36.88v33.4A12.7,12.7,0,0,1,34.64,47.33ZM2.48,44.85H34.64A10.24,10.24,0,0,0,44.85,34.64V2.48H12.66A10.23,10.23,0,0,0,2.45,12.69ZM32.37,24.24A8,8,0,1,0,38,26.58,7.95,7.95,0,0,0,32.37,24.24Zm0,13.61a5.67,5.67,0,1,1,4-1.66A5.66,5.66,0,0,1,32.37,37.85ZM16.94,23.7v-.06a1.1,1.1,0,0,1,.21-.66,1.16,1.16,0,0,1,.56-.42,8,8,0,0,0,3-13.21A8,8,0,0,0,9.42,9.18,8.15,8.15,0,0,0,7.6,11.83,8,8,0,0,0,7,15a8,8,0,0,0,5.31,7.56,1.18,1.18,0,0,1,.56.42,1.16,1.16,0,0,1,.21.67v.06a1.12,1.12,0,0,1-.77,1.07,8,8,0,1,0,8.29,13.38A8.13,8.13,0,0,0,23,32.35a8,8,0,0,0-5.31-7.57,1.17,1.17,0,0,1-.54-.42,1.22,1.22,0,0,1-.21-.64ZM23.67,13h-.06A1.18,1.18,0,0,1,23,12.8a1.21,1.21,0,0,1-.41-.56,8.05,8.05,0,0,0-15.62,2.4,8.07,8.07,0,0,0,2.24,5.89,8,8,0,0,0,2.65,1.82,8.06,8.06,0,0,0,10.72-4.66,1.17,1.17,0,0,1,1.08-.78h.06a1.19,1.19,0,0,1,.66.22,1.12,1.12,0,0,1,.42.56A8.05,8.05,0,0,0,32.53,23a8.08,8.08,0,0,0,7.83-7.71,7.82,7.82,0,0,0-.52-3.18,8.1,8.1,0,0,0-1.72-2.72,8.13,8.13,0,0,0-5.8-2.47,8.06,8.06,0,0,0-7.57,5.31,1.06,1.06,0,0,1-.4.55,1.19,1.19,0,0,1-.65.23ZM16.94,23.7v-.06a1.1,1.1,0,0,1,.21-.66,1.16,1.16,0,0,1,.56-.42,8,8,0,0,0,3-13.21A8,8,0,0,0,9.42,9.18,8.15,8.15,0,0,0,7.6,11.83,8,8,0,0,0,7,15a8,8,0,0,0,5.31,7.56,1.18,1.18,0,0,1,.56.42,1.16,1.16,0,0,1,.21.67v.06a1.12,1.12,0,0,1-.77,1.07,8,8,0,1,0,8.29,13.38A8.13,8.13,0,0,0,23,32.35a8,8,0,0,0-5.31-7.57,1.17,1.17,0,0,1-.54-.42,1.22,1.22,0,0,1-.21-.64ZM23.67,13h-.06A1.18,1.18,0,0,1,23,12.8a1.21,1.21,0,0,1-.41-.56,8.05,8.05,0,0,0-15.62,2.4,8.07,8.07,0,0,0,2.24,5.89,8,8,0,0,0,2.65,1.82,8.06,8.06,0,0,0,10.72-4.66,1.17,1.17,0,0,1,1.08-.78h.06a1.19,1.19,0,0,1,.66.22,1.12,1.12,0,0,1,.42.56A8.05,8.05,0,0,0,32.53,23a8.08,8.08,0,0,0,7.83-7.71,7.82,7.82,0,0,0-.52-3.18,8.1,8.1,0,0,0-1.72-2.72,8.13,8.13,0,0,0-5.8-2.47,8.06,8.06,0,0,0-7.57,5.31,1.06,1.06,0,0,1-.4.55,1.19,1.19,0,0,1-.65.23Z"/></g></g></svg>